<svg xmlns="http://www.w3.org/2000/svg" xmlns:xlink="http://www.w3.org/1999/xlink" version="1.1" x="0px" y="0px" viewBox="0 0 90 90" enable-background="new 0 0 90 90" xml:space="preserve"><path d="M20.7,30.5c4.9,1.7,10.6-2.8,10.6-2.8l1.1,6.9l1.1,6.8c0,0-5.7,4.5-10.6,2.8c-6.8-2.4-9.5-1.7-11.1-0.3L9.5,30.2  C11.1,28.8,13.8,28.1,20.7,30.5z M62,35L62,35c-6.8,0-12.3-5.6-12.3-12.5c0-2.9,0.8-4.6,1.5-5.4c2-3.1,8.6-3.3,10.6-3.3  c0.2,0,0.3,0,0.3,0c6.7,0,9.6,2.1,10.5,3l0.1,0.1c0.2,0.2,0.2,0.3,0.2,0.3c0.7,0.9,1.5,2.5,1.5,5.4C74.3,29.4,68.8,35,62,35z   M72.1,17.6c0,0-0.1-0.1-0.2-0.2l-0.1-0.1c-0.7-0.6-3.4-2.7-10-2.7c0,0-0.1,0-0.3,0c-1.3,0-8.1,0.1-9.9,2.9l0,0  c-0.5,0.6-1.3,2.1-1.3,4.9c0,6.4,5.2,11.7,11.5,11.7h0c6.4,0,11.5-5.2,11.5-11.7C73.5,19.6,72.7,18.2,72.1,17.6z M67.1,55.8h-11  V42.5h11V55.8z M66.3,43.3h-9.4V55h9.4V43.3z M64.3,45.1h-5.2v0.8h5.2V45.1z M64.3,47.2h-5.2V48h5.2V47.2z M64.3,49.2h-5.2v0.8h5.2  V49.2z M60.5,52.7c0,0.6,0.5,1.1,1.1,1.1c0.6,0,1.1-0.5,1.1-1.1c0-0.6-0.5-1.1-1.1-1.1C61,51.6,60.5,52.1,60.5,52.7z M31.1,25.8  c0.5-0.1,0.9,0.2,1,0.7l3,18.5c0,0,0,0,0.1,0l6.2-1.2l3.3-6.6V24.5c0-1.1,0.9-2,2-2h0.4C47.4,14.7,54,8.4,62,8.4  c8.2,0,14.8,6.5,14.8,14.4c0,0.2,0,0.4,0,0.6c0-0.2,0-0.4,0-0.6c0-0.1,0-0.3,0-0.4h0.5c1.1,0,2,0.9,2,2v12.9  c0.8,1.7,1.2,3.6,1.2,5.6v18.2H79c-0.3,2.8-2.5,4.9-5.2,5.2v11.2h0v2.9H62.3h-1.3H49.3v-4c0-0.1,0-0.1,0-0.2V50.1l-3,2.8l-10,0  l4.1,25.3c0,0,0,0,0.1,0c0.3-0.2,0.7-0.3,1-0.4c0.6-0.3,1.3-0.5,1.8-0.7c1.1-0.4,1.8-0.5,1.8-0.5s-0.6,0.4-1.6,1  c-0.5,0.3-1.1,0.6-1.7,0.9c-0.3,0.2-0.6,0.3-1,0.5c0,0-0.1,0-0.2,0.1c0.1,0,0.1,0,0.2,0.1c0.3,0.2,0.6,0.3,1,0.5  c0.6,0.3,1.2,0.6,1.7,0.9c1,0.6,1.6,1,1.6,1s-0.7-0.2-1.8-0.5c-0.5-0.2-1.1-0.4-1.8-0.7c-0.3-0.1-0.7-0.3-1-0.4  c-0.2-0.1-0.5-0.2-0.7-0.3c0,0-0.1,0-0.1,0c0,0,0,0-0.1,0c-0.3,0.1-0.5,0.2-0.8,0.3c-0.3,0.2-0.7,0.3-1,0.4  c-0.6,0.3-1.3,0.5-1.8,0.7c-1.1,0.4-1.8,0.5-1.8,0.5s0.6-0.4,1.6-1c0.5-0.3,1.1-0.6,1.7-0.9c0.3-0.2,0.6-0.3,1-0.5  c0,0,0.1,0,0.2-0.1c-0.1,0-0.1,0-0.2-0.1c-0.3-0.2-0.6-0.3-1-0.5c-0.6-0.3-1.2-0.6-1.7-0.9c-1-0.6-1.6-1-1.6-1s0.7,0.2,1.8,0.5  c0.5,0.2,1.1,0.4,1.8,0.7c0.3,0.1,0.6,0.2,0.9,0.4l-4-24.9c0,0,0,0,0,0c-0.1,0-0.3,0-0.4,0c-0.9,0-1.7-0.6-1.9-1.5l-1-4.2  c-0.1-0.5,0-1,0.3-1.5c0.3-0.4,0.7-0.8,1.2-0.9c0,0,0.4-0.1,0.6-0.1l-2.9-18.3C30.4,26.3,30.7,25.9,31.1,25.8z M46.1,24.5V35  c1-1.4,2.3-2.7,3.8-3.8c-1.5-2.1-2.5-4.6-2.7-7.3h-0.5C46.4,23.8,46.1,24.1,46.1,24.5z M47.2,23.4c0-0.2,0-0.4,0-0.6  C47.2,23,47.2,23.2,47.2,23.4z M62,9.8c-7.4,0-13.4,5.9-13.4,13.1s6,13.1,13.4,13.1c7.4,0,13.4-5.9,13.4-13.1S69.4,9.8,62,9.8z   M77.9,24.5c0-0.4-0.3-0.7-0.7-0.7h-0.5c0,0,0,0,0,0c-0.2,2.7-1.1,5.2-2.7,7.3c1.5,1.1,2.8,2.4,3.8,3.8V24.5z M72.5,76.2  c-0.3-2.6-2.5-4.7-5.1-4.7s-4.8,2-5.1,4.7H72.5z M60.9,76.2c-0.3-2.6-2.5-4.7-5.1-4.7s-4.8,2-5.1,4.7H60.9z M77.8,61.3h-3.9v3.9  C75.9,64.9,77.4,63.3,77.8,61.3z M72.5,79.2v-1.6H62.3v1.6H72.5z M60.9,79.2v-1.6H50.7v1.6H60.9z M49.4,48.1L49.4,48.1l1.3,0v24.7  c1.2-1.6,3-2.6,5.1-2.6c2.1,0,4,1.1,5.2,2.7v-9.8h1.2v9.8c1.2-1.6,3.1-2.7,5.2-2.7c2.1,0,3.9,1,5.1,2.6V48.1h1.3v11.8h5.3V43  c0-4.3-2.3-8.2-5.9-10.8c-2.7,3.1-6.7,5.1-11.3,5.1c-4.5,0-8.5-2-11.2-5.1c-1.9,1.4-3.5,3.2-4.5,5.2c0,0,0,0.1-0.1,0.1L42,45.1  L37.1,46c0.6,0.5,1.1,1.3,1.3,2.1c0.3,1.3,0,2.6-0.8,3.5l8.2-0.1L49.4,48.1z M32.6,46.8c-0.1,0.2-0.1,0.4-0.1,0.5l1,4.2  c0.1,0.3,0.4,0.6,0.7,0.6c0.1,0,0.1,0,0.2,0c0.4-0.1,1-0.2,1.1-0.3l0,0c1.3-0.5,2-1.9,1.7-3.3c-0.3-1.3-1.5-2.2-2.8-2.2  c-0.2,0-0.4,0-0.6,0.1c-0.1,0-0.7,0.2-0.7,0.2C32.9,46.5,32.7,46.6,32.6,46.8z"></path></svg>