<svg xmlns="http://www.w3.org/2000/svg" xmlns:xlink="http://www.w3.org/1999/xlink" version="1.1" x="0px" y="0px" viewBox="0 0 90 90" enable-background="new 0 0 90 90" xml:space="preserve"><path d="M62.6,58H27.4h-2.6v2.3v18.6h2.6V60.3h5.6v4v8.1v1.6h0v3.6h11.4h1.4h11.4v-2.9h0V60.3h5.6v18.6h2.6V60.3V58H62.6z   M34.7,60.3c-0.2,0.2-0.3,0.4-0.5,0.6v-0.6H34.7z M34.2,64.1c0.3-1.7,1.3-3,2.6-3.8h4.7c1.4,0.8,2.5,2.2,2.7,4h0v5.4  c-1.2-1.5-3-2.4-4.9-2.4c-2.1,0-3.9,1-5.1,2.6V64.1z M44.3,72.7v0.4h-10c0.3-2.6,2.4-4.6,5-4.6C41.8,68.6,43.8,70.3,44.3,72.7z   M44.3,74.6v1.6h-10v-1.7L44.3,74.6L44.3,74.6z M43.7,60.3h2.5c-0.5,0.5-0.9,1.1-1.2,1.8C44.6,61.4,44.2,60.8,43.7,60.3z M45.6,64.3  c0.2-1.7,1.2-3.2,2.7-4H53c1.4,0.8,2.5,2.2,2.7,4v5.6c-1.2-1.6-3-2.6-5.1-2.6c-2.1,0-3.9,1.1-5.1,2.7V64.3z M45.7,73.2  c0.3-2.6,2.4-4.6,5-4.6s4.7,2,5,4.6H45.7z M55.8,76.1h-10v-1.6h10V76.1z M55.8,61c-0.2-0.2-0.4-0.5-0.6-0.7h0.6V61z M45.2,37.3  L45.2,37.3c6.7,0,12.2-5.5,12.2-12.3c0-2.9-0.8-4.5-1.5-5.4c0,0-0.1-0.1-0.2-0.3l-0.1-0.1c-0.9-0.9-3.8-2.9-10.4-2.9  c0,0-0.1,0-0.3,0c-2,0-8.5,0.2-10.5,3.3C33.8,20.5,33,22.1,33,25C33,31.8,38.5,37.3,45.2,37.3z M35.2,20.2L35.2,20.2  c1.8-2.8,8.4-2.9,9.8-2.9c0.2,0,0.3,0,0.3,0c6.5,0,9.1,2.1,9.8,2.7l0.1,0.1c0.1,0.1,0.2,0.2,0.2,0.2c0.5,0.6,1.3,2,1.3,4.8  c0,6.3-5.1,11.5-11.3,11.5h0c-6.2,0-11.3-5.1-11.3-11.5C33.9,22.2,34.7,20.8,35.2,20.2z M31,57.8l1-1c-3.6-3.1-5-7.1-4.2-11.7  c0.4-2.2,1.1-3.9,1.7-5c0.1-0.1,0.1-0.2,0.2-0.4c1-2,2.6-3.7,4.5-5.1c2.7,3.1,6.7,5,11.1,5c4.3,0,8.3-1.9,10.9-4.8  c1.8,1.4,3.2,3,4.2,4.9c0.1,0.1,0.1,0.3,0.2,0.4c0.5,1.1,1.3,2.9,1.7,5c0.8,4.6-0.7,8.6-4.2,11.7l1,1c6.9-6,4.8-13.6,3.2-17.4V27  c0-1.1-0.9-2-2-2h-0.4c-0.2-7.7-6.7-13.9-14.6-13.9c-7.9,0-14.4,6.2-14.6,13.9h-0.4c-1.1,0-2,0.9-2,2v12.5  C26.5,42.8,23.5,51.3,31,57.8z M60.2,26.3c0.4,0,0.7,0.3,0.7,0.7v11c-1-1.6-2.3-3-3.9-4.2c1.6-2.1,2.6-4.7,2.8-7.4H60.2z M45.2,12.5  c7.3,0,13.2,5.8,13.2,12.9c0,7.1-5.9,12.9-13.2,12.9c-7.3,0-13.2-5.8-13.2-12.9C32,18.3,37.9,12.5,45.2,12.5z M29.5,27  c0-0.4,0.3-0.7,0.7-0.7h0.5c0.2,2.7,1.1,5.1,2.6,7.2c-1.5,1.1-2.7,2.4-3.8,3.8V27z M56.9,55.9V40c0-0.6-0.4-1.1-1-1.1H34  c-0.5,0-1,0.5-1,1.1v15.8h-3.2v1.3c0,0.6,0.4,1.1,1,1.1H34h22h3.3c0.5,0,1-0.5,1-1.1v-1.3H56.9z M45,50.1c-1,0-1.7-0.8-1.7-1.7  c0-1,0.8-1.7,1.7-1.7c1,0,1.7,0.8,1.7,1.7C46.7,49.3,46,50.1,45,50.1z"></path></svg>