<svg xmlns="http://www.w3.org/2000/svg" xmlns:xlink="http://www.w3.org/1999/xlink" version="1.1" x="0px" y="0px" viewBox="0 0 90 90" enable-background="new 0 0 90 90" xml:space="preserve"><path d="M66.7,58.8c-2.5-2.3-6.5-2.4-8.9,0l-5.9-5.9c0.2-0.1,0.3-0.3,0.5-0.4l10.8-10.8l-0.9-0.9c1.7-2.4,1.5-5.7-0.6-7.8l-0.6-0.6  l-3.6,3.6l0,0L51.3,42v-4.5c0-0.8-0.2-1.6-0.5-2.4c3.8-2.6,6.3-7,6.3-11.9c0-8-6.6-14.5-14.8-14.5c-8.2,0-14.8,6.5-14.8,14.5  c0,0.8,0.1,1.5,0.2,2.3h-4.4c-1.5,0-2.7,1.2-2.7,2.7v27.6c0,1.5,1.2,2.7,2.7,2.7h4.3l-6.9,6.9l0,0l0,0l13,13l2.7,2.7l2.8-2.8  c2.4-2.6,2.4-6.5,0-8.9l3.5-3.5l11.2,11.2l0,0l0,0l6.6-6.6l6.3-6.3l2.7-2.7L66.7,58.8z M58.7,59.8C58.7,59.7,58.7,59.7,58.7,59.8  c1.9-1.8,4.8-1.9,6.8-0.3l-1.7,1.7L62,62.9l-1.4,1.4l-2.2,2.2c-1.2-1.5-1.5-3.6-0.7-5.2C57.9,60.7,58.2,60.2,58.7,59.8z M61,34.9  c0.9,1.4,0.9,3.2,0.1,4.6l-2.3-2.3L61,34.9z M57.5,38.4l0.3,0.3l2.9,2.9l-9.6,9.6c-0.5,0.5-1.3,0.8-2.1,0.8c-0.8,0-1.5-0.3-2.1-0.8  l-6.3-6.3c-0.5-0.5-0.8-1.3-0.8-2.1c0-0.8,0.3-1.5,0.8-2.1c0.5-0.5,1.3-0.8,2.1-0.8c0.8,0,1.5,0.3,2.1,0.8l5.1,5.1L57.5,38.4z   M53.4,17.2c0.4,0.7,2.5,5.3,0.7,8.9c-0.6,1.3-3.3-0.1-4.7-2.2c1.6-0.5,3.2-1.3,2-2c-2.2-1.3-1.2-2.8-1.1-3.4c0,0,0-0.1-0.1-0.1  C51.6,17.1,53.4,17.2,53.4,17.2z M42.3,10.7c3.8,0,7.2,1.6,9.5,4.1c-0.1,0-0.2,0-0.2,0c-6.5,0-9.3,2-10.1,2.8c0,0,0,0-0.1,0.1  c-0.1,0.1-0.2,0.2-0.2,0.2c-0.4,0.5-1.4,2-1.4,5.1c0,5.4,3.5,9.9,8.3,11.4c0,0.1,0.1,0.1,0.1,0.2c-1.8,0.9-3.8,1.4-6,1.4  c-6,0-11.1-4-12.6-9.4c-0.3-1-0.4-2.1-0.4-3.2C29.3,16.4,35.2,10.7,42.3,10.7z M22.4,55.9V28.3c0-0.5,0.4-0.9,0.9-0.9h4.9  c0.5,1.7,1.4,3.3,2.4,4.7v23.8c0,0.5-0.4,0.9-0.9,0.9h-6.4C22.8,56.8,22.4,56.4,22.4,55.9z M36.3,79.3l-1.7-1.7l-6.3-6.3l-5.6-5.6  l-0.1-0.1l1.2-1.2l0.1,0.1l5.6,5.6l0,0l6.3,6.3l1.7,1.7L36.3,79.3z M38.4,77.2l-1.7-1.7l-1.8-1.8l-1.3-1.3l-2.3-2.3  c1.6-1.2,3.6-1.5,5.3-0.7c0.5,0.2,1,0.6,1.5,1c0,0,0,0,0,0C40,72.2,40,75.1,38.4,77.2z M37.6,68.4c-2.3-1.2-5.1-1-7.2,0.8l-5.7-5.7  l4.9-4.9h0.1c1.3,0,2.4-1,2.7-2.2h0v-0.3c0-0.1,0-0.1,0-0.2V37.2c0.1-0.8,0.4-1.6,1-2.3c2.5,1.8,5.6,2.9,8.9,2.9  c2.5,0,4.8-0.6,6.9-1.7c0.2,0.5,0.3,0.9,0.3,1.4v5.4l-3.4-3.4c-0.9-0.9-2.1-1.4-3.3-1.4c-1.3,0-2.4,0.5-3.3,1.4  c-0.9,0.9-1.4,2.1-1.4,3.3c0,1.3,0.5,2.4,1.4,3.3l6.3,6.3c0.9,0.9,2.1,1.4,3.3,1.4c0.1,0,0.3,0,0.4,0v2.7L37.6,68.4z M51,57.5  l0.3-0.3v-0.4V55l5.4,5.4c-1.2,2.2-0.9,5.1,0.8,7.2l-5.7,5.7l-8.2-8.2L51,57.5z M65.9,63.3l-6.3,6.3l-5.6,5.6l-0.1,0.1l-1.2-1.2  l0.1-0.1l5.6-5.6l0,0l6.3-6.3l1.7-1.7l1.2,1.2L65.9,63.3z M23.9,32.4H29v1.2h-5.1V32.4z M23.9,34.5H29v1.2h-5.1V34.5z M23.9,36.5H29  v1.2h-5.1V36.5z"></path></svg>