<svg xmlns="http://www.w3.org/2000/svg" xmlns:xlink="http://www.w3.org/1999/xlink" version="1.1" x="0px" y="0px" viewBox="0 0 90 90" enable-background="new 0 0 90 90" xml:space="preserve"><path d="M6.9,70.8h22.6l0,0L29.1,72l0,0v-0.1l-0.2,0.7H8.3l0,0H8.2c-2.5,0-4.5,2-4.5,4.5s2,4.5,4.5,4.5s4.5-2,4.5-4.5  c0-0.6-0.1-1.1-0.3-1.6h15.5c-0.2,0.5-0.3,1-0.3,1.6c0,2.5,2,4.5,4.5,4.5s4.5-2,4.5-4.5c0-2.4-2-4.5-4.5-4.5H32l8-23.3h2.9  c0.5,0.7,1.3,1.3,2.3,1.3c0.4,0,0.8-0.1,1.2-0.3c1.4,1,3.1,1.4,4.9,1.1l0.2,1.1l6.3-1.3v18.7c-0.1,0-0.1,0-0.1,0  c-3.4,0-6.3,2.9-6.4,6.4v3.9h4.5h13h9.4l0,0l0,0V57.9c0.3,0.2,0.7,0.3,1.1,0.3h6.5c1.4,0,2.5-1.1,2.5-2.5V27.8  c0-1.4-1.1-2.5-2.5-2.5H81c0.4-2.3,0.2-4.8-0.6-7.2c-1.3-3.6-4-6.6-7.5-8.3c-2.1-1-4.3-1.5-6.6-1.5c-5.5,0-10.5,3.1-12.9,8  c-1.7,3.4-1.9,7.3-0.6,11c1.2,3.4,3.5,6.1,6.6,7.9c-0.3,0.4-0.5,0.8-0.7,1.2c-0.6,0.7-0.8,4.4-0.8,5.6l-8.2,1.6l0.2,0.9l-3.7,0.8  c-0.3-0.1-0.6-0.2-1-0.2c-1,0-1.8,0.4-2.3,1.3H39c-0.1,0-0.1,0-0.2,0c-0.6,0.1-1,0.5-1.2,1L36,52l0,0H1.7L2,52.9l4.8,17.3l0.1,0.5  V70.8z M59.8,37L59.8,37c0.2-0.4,0.5-0.8,0.7-1.2c2,0.9,4.1,1.4,6.3,1.4l0,0c2.9,0,5.6-0.8,7.9-2.3c1.3,1.7,2.1,3.8,2.1,6v35h-8.1  c-0.3-3-2.6-5.5-5.5-5.9V59.1h-1.1v10.8c-0.7,0-1.4,0.1-2.1,0.4c-0.3-0.1-0.6-0.2-0.9-0.3V50.9l6.1-1.2c2.4-0.5,4-2.9,3.5-5.3  s-2.9-4-5.3-3.5l-4.1,0.8C59.4,40.1,59.6,37.6,59.8,37z M61.7,11.1c1.5,0.7,6.4,3.4,7.7,6.8V18c0.1,0.2,0.1,0.3,0.1,0.3  c0.2,0.8,0.3,2.4-0.9,5c-2,4-6.1,6.6-10.5,6.6c-1,0-1.9-0.1-2.8-0.3c-0.5-0.8-1-1.7-1.3-2.7c-1.2-3.3-1-6.9,0.5-10  c1.4-2.8,3.7-4.9,6.4-6.1C61.4,11,61.7,11.2,61.7,11.1z M78.5,28.7c-0.8,1.8-2.1,3.3-3.6,4.5c-0.2,0.2-0.3,0.3-0.5,0.4  c0,0.1-0.1,0.1-0.1,0.1c-0.1,0.1-0.3,0.2-0.5,0.3c-2.1,1.3-4.5,2-7,2c-2.1,0-4.1-0.5-6-1.4c-0.2-0.1-0.5-0.3-0.7-0.4  c-1.7-1-3.1-2.2-4.2-3.7c0.7,0.1,1.5,0.2,2.2,0.2c4.7,0,9-2.8,11.1-7c1.3-2.6,1.2-4.5,1-5.5c0,0,0-0.1-0.1-0.3v-0.1  c-0.5-1.2-2.1-4.3-8.1-7.2c0,0-0.1,0-0.2-0.1c1.4-0.5,2.9-0.8,4.5-0.8c2.1,0,4.1,0.5,6,1.4c3.2,1.6,5.6,4.3,6.8,7.6  C80.3,22,80.1,25.5,78.5,28.7z M78.1,31.8c0.6-0.8,1.2-1.6,1.6-2.5c0.4-0.9,0.8-1.7,1-2.6h5.1c0.6,0,1.1,0.5,1.1,1.1v27.9  c0,0.6-0.5,1.1-1.1,1.1h-6.6c-0.6,0-1.1-0.5-1.1-1.1V31.8L78.1,31.8z M76.9,33.1L76.9,33.1l-0.1,2.6c-0.3-0.6-0.6-1.1-1-1.6  C76.2,33.8,76.5,33.5,76.9,33.1z M57.2,77.2h6.9l0,0h12.7l0,0v1.7H57.2V77.2z M57.7,75.9h-0.6c0-0.7,0.2-1.3,0.5-1.8  c0.3-0.7,0.7-1.2,1.3-1.7c0.3-0.2,0.6-0.4,0.9-0.6c0.5-0.2,1-0.4,1.6-0.5c0.1-0.1,0.3-0.1,0.5-0.1c0.1,0,0.1,0,0.2,0  c0.2,0,0.3,0,0.5,0s0.3,0.1,0.5,0.1c2.1,0.4,3.8,2.3,4.1,4.5H64h-0.8h-0.5l0,0H62h-3l0,0L57.7,75.9L57.7,75.9z M52.8,77.2h2.9v1.7  h-2.9V77.2z M58.3,71.2c-0.2,0.1-0.4,0.3-0.6,0.5c-1.1,1.1-1.8,2.5-2,4.1h-3.1c0.4-2.6,2.5-4.6,5.1-4.6C57.7,71.2,58,71.2,58.3,71.2  z M51.3,44.7l8-1.6l0,0l0,0l4.5-0.9c1.7-0.3,3.4,0.8,3.7,2.5c0.3,1.7-0.8,3.4-2.5,3.7l-12.5,2.5L51.3,44.7z M45.3,47.1l4.2-0.9  l0.9,4.1C48.2,50.3,46.2,49.1,45.3,47.1z M9.7,77.1c0,0.9-0.7,1.6-1.6,1.6S6.5,78,6.5,77.1s0.7-1.6,1.6-1.6l0,0c0,0,0.1,0,0.2,0l0,0  C9.2,75.6,9.8,76.3,9.7,77.1z M21.8,69.3l0.2-4.9h5l-0.9,4.9H21.8z M21.7,64.2h-5l-0.3-5.1h5.5L21.7,64.2z M16.5,64.2h-4.9l-0.8-5.1  h5.4L16.5,64.2z M16.8,64.4h4.9l-0.2,4.9H17L16.8,64.4z M12.4,69.3l-0.7-4.9h4.8l0.3,4.9H12.4z M6.7,64.4h4.7l0.7,4.9H8L6.7,64.4z   M5.2,59.1h5.4l0.8,5.1H6.6L5.2,59.1z M9.6,53.5l0.8,5.1H5l-1.4-5.1H9.6z M16.2,58.6h-5.4L10,53.5h5.9L16.2,58.6z M22.2,53.5  L22,58.6h-5.5l-0.3-5.1H22.2z M22.3,59.1H28l-1,5.1h-5L22.3,59.1z M28.9,53.5L28,58.6h-5.8l0.2-5.1H28.9z M33.7,58.6h-5.4l0.9-5.1  h6.3L33.7,58.6z M31.9,64.2h-4.5l0.9-5.1h5.3L31.9,64.2z M30.4,77.1c0-0.9,0.7-1.6,1.6-1.6c0.9,0,1.6,0.7,1.6,1.6s-0.7,1.6-1.6,1.6  C31.1,78.7,30.4,78,30.4,77.1z M26.4,69.3l0.9-4.9h4.4L30,69.3H26.4z M85.1,31.2c0.4,0,0.7,0.3,0.7,0.7s-0.3,0.7-0.7,0.7H80  c-0.4,0-0.7-0.3-0.7-0.7s0.3-0.7,0.7-0.7H85.1z M80,33.3h5.1c0.4,0,0.7,0.3,0.7,0.7s-0.3,0.7-0.7,0.7H80c-0.4,0-0.7-0.3-0.7-0.7  S79.6,33.3,80,33.3z M80,35.3h5.1c0.4,0,0.7,0.3,0.7,0.7s-0.3,0.7-0.7,0.7H80c-0.4,0-0.7-0.3-0.7-0.7C79.3,35.7,79.6,35.4,80,35.3z"></path></svg>