<svg xmlns="http://www.w3.org/2000/svg" xmlns:xlink="http://www.w3.org/1999/xlink" version="1.1" x="0px" y="0px" viewBox="0 0 90 90" enable-background="new 0 0 90 90" xml:space="preserve"><path d="M44.9,35.4L44.9,35.4c6.9,0,12.5-5.7,12.5-12.6c0-3-0.8-4.6-1.5-5.5c-2-3.1-8.7-3.4-10.7-3.4c-0.2,0-0.3,0-0.3,0  c-6.8,0-9.7,2.1-10.6,3L34.3,17c-0.2,0.2-0.2,0.3-0.2,0.3c-0.7,0.9-1.6,2.5-1.6,5.5C32.5,29.7,38,35.4,44.9,35.4z M34.7,17.8  c0,0,0.1-0.1,0.2-0.2l0.1-0.1c0.7-0.6,3.4-2.7,10-2.7c0,0,0.1,0,0.3,0c1.3,0,8.2,0.1,9.9,3l0,0c0.5,0.6,1.3,2.1,1.3,4.9  c0,6.5-5.2,11.7-11.6,11.7h0c-6.4,0-11.6-5.3-11.6-11.7C33.4,19.9,34.2,18.5,34.7,17.8z M66.6,47.6v-9.9l-3.9,0.8  c-0.1-0.3-0.2-0.5-0.3-0.8V24.8c0-1.1-0.9-2.1-2.1-2.1h-0.4C59.7,14.9,53.1,8.6,45,8.6c-8.1,0-14.7,6.3-14.9,14.2h-0.5  c-1.1,0-2.1,0.9-2.1,2.1v13c-0.1,0.2-0.2,0.4-0.3,0.7l-3.9-0.8v9.9c-0.9,0.4-1.4,1.3-1.3,2.3l0.6,5c0.1,0.6,0.3,1,0.7,1.4v7.6  l9.2,1.8v12.8h0v3h11.7h1.3h11.7v-4c0-0.1,0-0.1,0-0.2V65.7l9.3-1.8v-7.6c0.4-0.3,0.7-0.8,0.7-1.4l0.6-5C68,48.9,67.5,48,66.6,47.6z   M60.3,24.2c0.4,0,0.7,0.3,0.7,0.7v10.5c-1-1.4-2.3-2.7-3.8-3.8c1.5-2.1,2.5-4.6,2.7-7.3H60.3z M45,10c7.5,0,13.5,5.9,13.5,13.2  S52.4,36.3,45,36.3c-7.5,0-13.5-5.9-13.5-13.2S37.5,10,45,10z M28.9,24.8c0-0.4,0.3-0.7,0.7-0.7h0.5c0.2,2.7,1.2,5.2,2.7,7.4  c-1.5,1.1-2.8,2.4-3.8,3.9V24.8z M33.6,32.6c2.7,3.1,6.8,5.1,11.4,5.1c4.6,0,8.6-2,11.4-5.2c2.3,1.7,4,3.8,5,6.2L45,42l-16.4-3.2  C29.6,36.4,31.3,34.2,33.6,32.6z M23.9,54.7l-0.5-4.5l-0.1-0.5c0-0.2,0-0.3,0.1-0.4c0.1-0.3,0.4-0.6,0.8-0.6c0,0,0.2,0,0.4-0.1  c0.2,0,0.3,0,0.3,0c0.1,0,0.3,0,0.4,0c1.8,0,3.3,1.3,3.5,3.1c0.2,1.7-0.9,3.3-2.5,3.7l0,0c-0.2,0-0.8,0.1-1.3,0.2  c-0.1,0-0.2,0-0.3,0C24.3,55.4,24,55.1,23.9,54.7z M24.6,56.8c0.1,0,0.1,0,0.2,0c0.1,0,0.2,0,0.3,0c1.1-0.1,1.4-0.2,1.5-0.2  c2.2-0.6,3.7-2.8,3.4-5.1c-0.3-2.4-2.3-4.2-4.7-4.2c-0.2,0-0.4,0-0.5,0c0,0-0.1,0-0.2,0v-8.1l2.2,0.4c0,0,0,0,0,0l1.3,0.3  c0,0,0,0,0,0l16.2,3.2v23.6l-19.8-3.9V56.8z M44.3,80.1H34v-1.6h10.3V80.1z M34,77c0.3-2.7,2.5-4.7,5.1-4.7c2.6,0,4.8,2.1,5.1,4.7  H34z M39.2,71c-2.1,0-4,1-5.2,2.6v-7.7l10.4,2l0,0v5.8C43.2,72.1,41.3,71,39.2,71z M56,80.1H45.7v-1.6H56V80.1z M45.7,77  c0.3-2.7,2.5-4.7,5.1-4.7c2.6,0,4.8,2.1,5.1,4.7H45.7z M56,73.6C54.8,72,52.9,71,50.8,71c-2.2,0-4.1,1.1-5.3,2.8V68l0,0l10.4-2V73.6  z M65.4,62.8l-19.8,3.9V43.1l16.2-3.2c0,0,0,0,0,0l1.3-0.3c0,0,0,0,0,0l2.2-0.4v8.1c-0.1,0-0.2,0-0.2,0c-0.2,0-0.4,0-0.5,0  c-2.4,0-4.4,1.8-4.7,4.2c-0.3,2.3,1.2,4.5,3.4,5.1c0.1,0,0.4,0.1,1.5,0.2c0.1,0,0.2,0,0.3,0c0.1,0,0.1,0,0.2,0V62.8z M66.6,50.2  l-0.5,4.5c0,0.4-0.4,0.7-0.7,0.8c-0.1,0-0.2,0-0.3,0c-0.5-0.1-1.1-0.2-1.3-0.2l0,0c-1.7-0.5-2.7-2-2.5-3.7c0.2-1.8,1.7-3.1,3.5-3.1  c0.1,0,0.3,0,0.4,0c0,0,0.2,0,0.3,0c0.2,0,0.4,0.1,0.4,0.1c0.4,0,0.7,0.3,0.8,0.6c0.1,0.1,0.1,0.3,0.1,0.4L66.6,50.2z"></path></svg>