<svg xmlns="http://www.w3.org/2000/svg" xmlns:xlink="http://www.w3.org/1999/xlink" version="1.1" x="0px" y="0px" viewBox="0 0 90 90" enable-background="new 0 0 90 90" xml:space="preserve"><path d="M28.6,66l9.8,10.3l-4.6,6.2l-0.3-2.7l-18.1,8.5l11.8-17l-7.4-0.7L28.6,66z M70.5,54.5c-1.7,3.6-4.3,7.1-7.3,10.1  c-2.4,7.1-6.4,18.9-6.4,18.9l-0.3,1l-9.8-10.3c-1.6,0.4-3.8,1-6.1,1.3l-0.3,0L29.9,64.7l0.1-0.3c0.4-2.2,1.1-4.4,1.6-6l-9.9-10.3  l1-0.3c0,0,12-3.5,19.2-5.6l0.1,0c3.1-2.8,6.7-5.3,10.4-6.8c4.6-2,11.2-3.9,16-3.3c1.7,0.2,3.1,0.8,4.2,1.6c0.1,0.1,0.4,0.3,0.4,0.3  l0.1,0.1c0.1,0.1,0.2,0.3,0.3,0.4C77.2,40,71.7,52.1,70.5,54.5z M31.7,56.8c1.7-4.7,4.5-9,8.1-12.8c-5.8,1.7-13.2,3.9-15.9,4.7  L31.7,56.8z M61.3,66.5c-3.9,3.4-8.4,6-13.1,7.5l7.8,8.1C56.9,79.5,59.4,72.2,61.3,66.5z M72.1,35.1c-0.1-0.1-0.2-0.2-0.2-0.3  c-0.1-0.1-0.2-0.2-0.3-0.3c-0.9-0.7-2.1-1.2-3.6-1.4c-4.5-0.6-10.8,1.3-15.3,3.2c-3.6,1.6-7.5,4.2-10.5,7.1  c-4.3,4.1-7.5,9.1-9.2,14.5c-0.5,1.5-1.2,3.9-1.7,6.3l9.5,9.9c2.4-0.4,4.8-1,6.3-1.4c5.4-1.5,10.6-4.5,14.9-8.6  c3.1-2.9,5.8-6.7,7.5-10.2C74.3,44,73.9,37.6,72.1,35.1z M70.4,36.7C72.9,40,69.7,47,69,48.4c-1,2.1-2.6,4.3-4.5,6.1  c-2.5,2.4-5.6,4.2-8.8,5.1c-0.9,0.3-2.4,0.6-3.9,0.8l-0.4,0.1l-6.1-6.4l0.1-0.4c0.3-1.5,0.7-2.9,1-3.8c1-3.2,2.9-6.2,5.5-8.6  c1.8-1.8,4-3.2,6.2-4.2c1.3-0.6,5.7-2.3,9.2-1.9c1,0.1,1.9,0.5,2.6,1c0.1,0.1,0.3,0.2,0.3,0.2l0,0C70.3,36.5,70.4,36.6,70.4,36.7z   M69.2,37.6c0,0-0.1-0.1-0.1-0.1c0,0-0.1-0.1-0.1-0.1c-0.4-0.4-1.1-0.6-1.8-0.7c-2.4-0.3-5.9,0.7-8.4,1.8c-2,0.9-4.1,2.3-5.8,3.9  c-2.4,2.3-4.1,5-5.1,8c-0.3,0.8-0.6,2-0.9,3.3l5.1,5.3c1.3-0.2,2.5-0.5,3.3-0.8c3-0.8,5.8-2.5,8.2-4.8c1.7-1.6,3.2-3.7,4.1-5.6  C69,45,70.9,39.8,69.2,37.6z M39.7,19.4c2.4,0.6,4.7,0.9,6.5,0.9c1.2,0,2-0.1,2.5-0.3c0.4-4.4-2.4-8.6-6.9-9.8  c-4.4-1.1-8.9,1.2-10.7,5.2C32,16.4,34.8,18.2,39.7,19.4z M30.8,21.8c0.9,2.9,3.3,5.4,6.5,6.2c3.2,0.8,6.4-0.2,8.6-2.3  c-2.3-0.2-4.9-0.6-7.6-1.3C35.7,23.8,33.1,22.9,30.8,21.8z M30.5,14.5c-2.6,0.1-4.4,0.7-4.7,1.8c-0.6,2.2,5.1,5.6,12.7,7.5  c7.6,1.9,14.2,1.7,14.8-0.6c0.3-1.1-1-2.5-3.2-3.8c0,0.1,0,0.1,0,0.2c-0.4,1.6-5.1,1.7-10.6,0.3c-5.4-1.4-9.5-3.8-9.1-5.3  C30.4,14.6,30.4,14.6,30.5,14.5z M61.5,22.6l1.8-0.9l1.8,0.9l-0.3-2l1.4-1.4l-2-0.3l-0.9-1.8l-0.9,1.8l-2,0.3l1.4,1.4L61.5,22.6z   M28.3,35.9l-0.7-1.3L27,35.9l-1.5,0.2l1.1,1l-0.2,1.4l1.3-0.7l1.3,0.7l-0.2-1.4l1.1-1L28.3,35.9z M22.9,5.6l1.3-0.7l1.3,0.7  l-0.2-1.4l1-1L24.8,3l-0.6-1.3L23.5,3l-1.4,0.2l1,1L22.9,5.6z"></path></svg>